<svg width="1195" height="800" viewBox="0 0 1195 800" fill="none" xmlns="http://www.w3.org/2000/svg">
<path d="M1153.26 245.484C1139.27 183.688 1110.39 126.248 1069.13 78.1615C1047.01 52.5379 1020.08 28.4232 988.818 12.6789C892.53 -35.7212 726.517 66.3746 645.86 118.732C565.202 171.09 504.702 120.07 405.681 109.308C306.66 98.5465 185.631 176.471 180.137 299.863C174.642 423.254 336.896 519.998 303.899 587.103C270.901 654.209 221.334 756.247 402.92 793.829C584.506 831.41 675.242 654.322 788.014 670.351C900.786 686.38 880.259 833.033 1082.32 764.305C1245.85 708.758 1195.12 426.5 1153.26 245.484Z" fill="#002DCB"/>
<path opacity="0.7" d="M1153.26 245.484C1139.27 183.688 1110.39 126.248 1069.13 78.1615C1047.01 52.5379 1020.08 28.4232 988.818 12.6789C892.53 -35.7212 726.517 66.3746 645.86 118.732C565.202 171.09 504.702 120.07 405.681 109.308C306.66 98.5465 185.631 176.471 180.137 299.863C174.642 423.255 336.896 519.998 303.899 587.103C270.901 654.209 221.334 756.247 402.92 793.829C584.506 831.41 675.242 654.322 788.014 670.351C900.786 686.38 880.259 833.033 1082.32 764.305C1245.85 708.758 1195.12 426.5 1153.26 245.484Z" fill="url(#paint0_linear)"/>
<path d="M380.096 607.268H372.462L341.401 670H351.358L380.096 645.151V607.268Z" fill="#2E353A" stroke="#2E353A" stroke-miterlimit="10"/>
<path d="M343.14 670H333.183L364.274 607.268H374.231L343.14 670Z" fill="#2E353A" stroke="#2E353A" stroke-miterlimit="10"/>
<path d="M997.489 607.268H1005.12L1036.18 670H1026.23L997.489 645.151V607.268Z" fill="#2E353A" stroke="#2E353A" stroke-miterlimit="10"/>
<path d="M1034.44 670H1044.4L1013.31 607.268H1003.35L1034.44 670Z" fill="#2E353A" stroke="#2E353A" stroke-miterlimit="10"/>
<path d="M1071.51 145.415H304.766V624.192H1071.51V145.415Z" fill="#2E353A" stroke="#2E353A" stroke-miterlimit="10"/>
<path d="M1055.98 158.565H320.296V611.013H1055.98V158.565Z" fill="white" stroke="#2E353A" stroke-miterlimit="10"/>
<path d="M442.473 376.613C441.107 376.613 440 377.72 440 379.086V402.914C440 404.28 441.107 405.387 442.473 405.387C443.839 405.387 444.946 404.28 444.946 402.914V379.086C444.946 377.72 443.839 376.613 442.473 376.613Z" fill="#6783E6"/>
<path d="M454.284 369.467C452.918 369.467 451.811 370.574 451.811 371.94V410.06C451.811 411.426 452.918 412.533 454.284 412.533C455.65 412.533 456.757 411.426 456.757 410.06V371.94C456.757 370.574 455.65 369.467 454.284 369.467Z" fill="#6783E6"/>
<path d="M466.094 359.521C464.728 359.521 463.621 360.628 463.621 361.994V420.006C463.621 421.372 464.728 422.479 466.094 422.479C467.46 422.479 468.567 421.372 468.567 420.006V361.994C468.567 360.628 467.46 359.521 466.094 359.521Z" fill="#6783E6"/>
<path d="M477.906 373.937C476.54 373.937 475.433 375.044 475.433 376.41V405.59C475.433 406.956 476.54 408.063 477.906 408.063C479.272 408.063 480.379 406.956 480.379 405.59V376.41C480.379 375.044 479.272 373.937 477.906 373.937Z" fill="#6783E6"/>
<path d="M489.716 376.613C488.35 376.613 487.243 377.72 487.243 379.086V402.914C487.243 404.28 488.35 405.387 489.716 405.387C491.082 405.387 492.189 404.28 492.189 402.914V379.086C492.189 377.72 491.081 376.613 489.716 376.613Z" fill="#6783E6"/>
<path d="M501.527 384.532C500.161 384.532 499.054 385.639 499.054 387.005V394.995C499.054 396.361 500.161 397.468 501.527 397.468C502.893 397.468 504 396.361 504 394.995V387.005C504 385.639 502.893 384.532 501.527 384.532Z" fill="#6783E6"/>
<g clip-path="url(#clip0)">
<path d="M470.138 467.053L473.623 464.065C474.554 463.226 474.646 461.799 473.832 460.847C473.017 459.895 471.592 459.766 470.62 460.556L462.534 467.487C462.021 467.926 461.726 468.567 461.726 469.241C461.726 469.916 462.021 470.557 462.534 470.996L470.62 477.927C471.243 478.489 472.123 478.669 472.917 478.396C473.711 478.123 474.295 477.441 474.441 476.615C474.588 475.788 474.275 474.947 473.623 474.418L470.491 471.734C484.044 473.34 493.909 485.364 492.836 498.97C491.763 512.575 480.135 522.904 466.498 522.365C452.861 521.827 442.084 510.613 442.087 496.966C442.066 491.248 443.993 485.693 447.552 481.218C448.076 480.572 448.212 479.693 447.908 478.918C447.604 478.144 446.906 477.592 446.082 477.475C445.258 477.358 444.435 477.694 443.927 478.353C439.72 483.643 437.442 490.207 437.466 496.966C437.463 513.211 450.378 526.515 466.616 526.993C482.855 527.472 496.531 514.951 497.484 498.734C498.436 482.516 486.321 468.48 470.138 467.053V467.053Z" fill="#00ACEC"/>
<path d="M455.603 477.927C456.226 478.489 457.106 478.669 457.9 478.396C458.694 478.123 459.277 477.441 459.424 476.615C459.571 475.788 459.258 474.947 458.606 474.418L452.568 469.241L458.606 464.065C459.537 463.226 459.629 461.799 458.815 460.847C458 459.895 456.575 459.766 455.603 460.556L447.516 467.487C447.004 467.926 446.709 468.567 446.709 469.241C446.709 469.916 447.004 470.557 447.516 470.996L455.603 477.927Z" fill="#00ACEC"/>
<path d="M456.979 484.647L453.513 486.957C452.479 487.65 452.18 489.038 452.837 490.095C453.493 491.153 454.87 491.5 455.949 490.88V506.207H454.794C453.518 506.207 452.484 507.241 452.484 508.517C452.484 509.793 453.518 510.828 454.794 510.828H461.725C463.001 510.828 464.036 509.793 464.036 508.517C464.036 507.241 463.001 506.207 461.725 506.207H460.57V486.569C460.57 485.717 460.101 484.934 459.35 484.532C458.599 484.13 457.688 484.174 456.979 484.647Z" fill="#00ACEC"/>
<path d="M476.741 510.828C479.931 510.828 482.517 508.242 482.517 505.052V490.034C482.517 486.845 479.931 484.259 476.741 484.259H473.276C470.086 484.259 467.5 486.845 467.5 490.034V505.052C467.5 508.242 470.086 510.828 473.276 510.828H476.741ZM472.121 505.052V490.034C472.121 489.397 472.638 488.879 473.276 488.879H476.741C477.379 488.879 477.897 489.397 477.897 490.034V505.052C477.897 505.69 477.379 506.207 476.741 506.207H473.276C472.638 506.207 472.121 505.69 472.121 505.052Z" fill="#00ACEC"/>
</g>
<path d="M470.943 279.074V301.926C470.943 303.328 472.08 304.465 473.482 304.465C474.885 304.465 476.021 303.328 476.021 301.926V279.074C476.021 277.672 474.885 276.535 473.482 276.535C472.08 276.535 470.943 277.672 470.943 279.074Z" fill="#00BFA6"/>
<path d="M489.481 267.519C483.342 261.381 475.181 258 466.5 258C457.819 258 449.658 261.381 443.519 267.519C437.381 273.658 434 281.819 434 290.5C434 299.181 437.381 307.342 443.519 313.481C449.658 319.619 457.819 323 466.5 323C472.443 323 478.258 321.38 483.316 318.316C484.516 317.59 484.899 316.028 484.173 314.829C483.446 313.63 481.885 313.246 480.685 313.973C476.42 316.556 471.515 317.922 466.5 317.922C451.38 317.922 439.078 305.62 439.078 290.5C439.078 275.38 451.38 263.078 466.5 263.078C481.62 263.078 493.922 275.38 493.922 290.5C493.922 295.907 492.314 301.17 489.272 305.72C488.493 306.886 488.806 308.462 489.972 309.242C491.138 310.021 492.714 309.708 493.494 308.542C497.096 303.154 499 296.915 499 290.5C499 281.819 495.619 273.658 489.481 267.519Z" fill="#00BFA6"/>
<path d="M456.979 279.074V301.926C456.979 303.328 458.115 304.465 459.518 304.465C460.92 304.465 462.057 303.328 462.057 301.926V279.074C462.057 277.672 460.92 276.535 459.518 276.535C458.115 276.535 456.979 277.672 456.979 279.074Z" fill="#00BFA6"/>
<rect x="517" y="454" width="89" height="75" rx="37.5" fill="url(#paint1_linear)"/>
<path d="M542.224 499H553.713V496.741H545.855V496.614L549.324 492.983C552.52 489.753 553.432 488.21 553.432 486.259C553.432 483.455 551.148 481.307 547.858 481.307C544.594 481.307 542.207 483.42 542.207 486.608H544.722C544.713 484.733 545.923 483.506 547.807 483.506C549.58 483.506 550.926 484.597 550.926 486.335C550.926 487.878 550.006 488.986 548.131 490.972L542.224 497.091V499ZM563.879 499.29C567.911 499.29 570.271 496 570.271 490.281C570.271 484.605 567.877 481.307 563.879 481.307C559.874 481.307 557.487 484.597 557.479 490.281C557.479 495.991 559.84 499.281 563.879 499.29ZM563.879 497.014C561.519 497.014 560.095 494.645 560.095 490.281C560.104 485.935 561.527 483.54 563.879 483.54C566.223 483.54 567.655 485.935 567.655 490.281C567.655 494.645 566.232 497.014 563.879 497.014ZM582.73 495.727C582.739 497.696 583.975 499.358 586.284 499.358C588.568 499.358 589.821 497.696 589.821 495.727V494.807C589.821 492.83 588.603 491.176 586.284 491.176C584.009 491.176 582.739 492.838 582.73 494.807V495.727ZM573.952 485.739C573.952 487.707 575.196 489.369 577.506 489.369C579.782 489.369 581.043 487.716 581.034 485.739V484.818C581.043 482.841 579.816 481.188 577.506 481.188C575.239 481.188 573.952 482.841 573.952 484.818V485.739ZM574.668 499H576.705L588.705 481.545H586.668L574.668 499ZM584.716 494.807C584.725 493.827 585.151 492.881 586.284 492.881C587.461 492.881 587.827 493.827 587.827 494.807V495.727C587.827 496.707 587.426 497.653 586.284 497.653C585.125 497.653 584.725 496.699 584.716 495.727V494.807ZM575.946 484.818C575.946 483.847 576.372 482.892 577.506 482.892C578.682 482.892 579.049 483.838 579.049 484.818V485.739C579.049 486.719 578.648 487.665 577.506 487.665C576.347 487.665 575.946 486.719 575.946 485.739V484.818Z" fill="white"/>
<rect x="517" y="258" width="465" height="75" rx="37.5" fill="url(#paint2_linear)"/>
<rect x="517" y="356" width="326" height="75" rx="37.5" fill="url(#paint3_linear)"/>
<rect y="366" width="364" height="73" rx="10" fill="url(#paint4_linear)"/>
<path d="M27.2145 387.545H23.4982V413H27.2145V387.545ZM40.4056 413.385C45.7873 413.385 49.3047 409.445 49.3047 403.542C49.3047 397.6 45.7873 393.661 40.4056 393.661C35.0238 393.661 31.5064 397.6 31.5064 403.542C31.5064 409.445 35.0238 413.385 40.4056 413.385ZM40.418 410.266C36.9006 410.266 35.26 407.196 35.26 403.529C35.26 399.875 36.9006 396.768 40.418 396.768C43.9106 396.768 45.5512 399.875 45.5512 403.529C45.5512 407.196 43.9106 410.266 40.418 410.266ZM57.1607 413H60.9391L64.817 399.216H65.1028L68.9807 413H72.7715L78.377 393.909H74.5364L70.8202 407.867H70.6337L66.905 393.909H63.0645L59.3109 407.929H59.1245L55.3834 393.909H51.5428L57.1607 413ZM99.5079 413.385C104.02 413.385 106.94 410.676 107.351 406.96H103.734C103.261 409.023 101.658 410.241 99.5328 410.241C96.3883 410.241 94.3623 407.618 94.3623 403.455C94.3623 399.365 96.4255 396.793 99.5328 396.793C101.894 396.793 103.336 398.284 103.734 400.074H107.351C106.953 396.221 103.808 393.661 99.4706 393.661C94.0889 393.661 90.6088 397.712 90.6088 403.542C90.6088 409.296 93.9646 413.385 99.5079 413.385ZM119.516 413.385C124.898 413.385 128.415 409.445 128.415 403.542C128.415 397.6 124.898 393.661 119.516 393.661C114.135 393.661 110.617 397.6 110.617 403.542C110.617 409.445 114.135 413.385 119.516 413.385ZM119.529 410.266C116.011 410.266 114.371 407.196 114.371 403.529C114.371 399.875 116.011 396.768 119.529 396.768C123.021 396.768 124.662 399.875 124.662 403.529C124.662 407.196 123.021 410.266 119.529 410.266ZM140.718 420.557C145.578 420.557 149.331 418.332 149.331 413.423V393.909H145.69V397.004H145.416C144.757 395.823 143.44 393.661 139.885 393.661C135.274 393.661 131.881 397.302 131.881 403.38C131.881 409.47 135.349 412.714 139.86 412.714C143.365 412.714 144.72 410.738 145.391 409.52H145.627V413.273C145.627 416.269 143.577 417.561 140.755 417.561C137.66 417.561 136.455 416.008 135.796 414.914L132.602 416.232C133.609 418.568 136.156 420.557 140.718 420.557ZM140.681 409.632C137.362 409.632 135.634 407.084 135.634 403.33C135.634 399.664 137.325 396.817 140.681 396.817C143.925 396.817 145.665 399.465 145.665 403.33C145.665 407.27 143.887 409.632 140.681 409.632ZM158.181 401.665C158.181 398.62 160.046 396.88 162.631 396.88C165.154 396.88 166.683 398.533 166.683 401.304V413H170.399V400.857C170.399 396.134 167.802 393.661 163.899 393.661C161.028 393.661 159.151 394.99 158.268 397.016H158.032V393.909H154.465V413H158.181V401.665ZM175.533 413H179.249V393.909H175.533V413ZM177.41 390.963C178.69 390.963 179.759 389.969 179.759 388.751C179.759 387.533 178.69 386.526 177.41 386.526C176.117 386.526 175.061 387.533 175.061 388.751C175.061 389.969 176.117 390.963 177.41 390.963ZM193.311 393.909H189.395V389.335H185.679V393.909H182.883V396.892H185.679V408.165C185.667 411.633 188.314 413.311 191.247 413.249C192.428 413.236 193.224 413.012 193.659 412.851L192.987 409.781C192.739 409.831 192.279 409.942 191.682 409.942C190.477 409.942 189.395 409.545 189.395 407.395V396.892H193.311V393.909ZM197.571 413H201.288V393.909H197.571V413ZM199.448 390.963C200.728 390.963 201.797 389.969 201.797 388.751C201.797 387.533 200.728 386.526 199.448 386.526C198.156 386.526 197.099 387.533 197.099 388.751C197.099 389.969 198.156 390.963 199.448 390.963ZM222.769 393.909H218.779L213.957 408.6H213.758L208.923 393.909H204.933L211.869 413H215.846L222.769 393.909ZM233.956 413.385C238.12 413.385 241.065 411.335 241.91 408.227L238.393 407.593C237.722 409.396 236.106 410.315 233.993 410.315C230.811 410.315 228.674 408.252 228.574 404.573H242.147V403.256C242.147 396.358 238.02 393.661 233.695 393.661C228.375 393.661 224.87 397.712 224.87 403.579C224.87 409.507 228.326 413.385 233.956 413.385ZM228.587 401.789C228.736 399.08 230.7 396.73 233.72 396.73C236.603 396.73 238.492 398.868 238.505 401.789H228.587ZM259.549 387.545H255.833V413H259.549V387.545ZM272.74 413.385C278.122 413.385 281.639 409.445 281.639 403.542C281.639 397.6 278.122 393.661 272.74 393.661C267.358 393.661 263.841 397.6 263.841 403.542C263.841 409.445 267.358 413.385 272.74 413.385ZM272.752 410.266C269.235 410.266 267.594 407.196 267.594 403.529C267.594 399.875 269.235 396.768 272.752 396.768C276.245 396.768 277.886 399.875 277.886 403.529C277.886 407.196 276.245 410.266 272.752 410.266ZM291.493 413.423C294.65 413.423 296.427 411.819 297.136 410.39H297.285V413H300.914V400.322C300.914 394.767 296.539 393.661 293.507 393.661C290.051 393.661 286.869 395.053 285.627 398.533L289.119 399.328C289.666 397.973 291.058 396.668 293.556 396.668C295.955 396.668 297.186 397.924 297.186 400.086V400.173C297.186 401.528 295.793 401.503 292.363 401.901C288.746 402.324 285.042 403.268 285.042 407.606C285.042 411.359 287.864 413.423 291.493 413.423ZM292.301 410.44C290.2 410.44 288.684 409.495 288.684 407.656C288.684 405.667 290.449 404.958 292.599 404.673C293.805 404.511 296.663 404.188 297.198 403.653V406.114C297.198 408.376 295.396 410.44 292.301 410.44ZM313.161 413.373C316.641 413.373 318.008 411.248 318.679 410.029H318.99V413H322.619V387.545H318.903V397.004H318.679C318.008 395.823 316.74 393.661 313.186 393.661C308.574 393.661 305.181 397.302 305.181 403.492C305.181 409.669 308.525 413.373 313.161 413.373ZM313.981 410.203C310.662 410.203 308.935 407.283 308.935 403.455C308.935 399.664 310.625 396.817 313.981 396.817C317.225 396.817 318.965 399.465 318.965 403.455C318.965 407.469 317.188 410.203 313.981 410.203Z" fill="white"/>
<rect y="263" width="364" height="73" rx="10" fill="url(#paint5_linear)"/>
<path d="M27.2145 298.665C27.2145 295.62 29.141 293.88 31.7884 293.88C34.3487 293.88 35.8775 295.508 35.8775 298.304V310H39.5938V297.857C39.5938 293.097 36.9837 290.661 33.0561 290.661C30.0856 290.661 28.2958 291.953 27.4009 294.016H27.1648V284.545H23.4982V310H27.2145V298.665ZM44.7029 310H48.4192V290.909H44.7029V310ZM46.5797 287.963C47.8599 287.963 48.9288 286.969 48.9288 285.751C48.9288 284.533 47.8599 283.526 46.5797 283.526C45.2871 283.526 44.2306 284.533 44.2306 285.751C44.2306 286.969 45.2871 287.963 46.5797 287.963ZM61.573 317.557C66.4327 317.557 70.1863 315.332 70.1863 310.423V290.909H66.5446V294.004H66.2711C65.6124 292.823 64.2949 290.661 60.7403 290.661C56.1291 290.661 52.736 294.302 52.736 300.38C52.736 306.47 56.2037 309.714 60.7154 309.714C64.2204 309.714 65.5751 307.738 66.2463 306.52H66.4824V310.273C66.4824 313.269 64.4317 314.561 61.6103 314.561C58.5155 314.561 57.3099 313.008 56.6511 311.914L53.4569 313.232C54.4636 315.568 57.0116 317.557 61.573 317.557ZM61.5357 306.632C58.2172 306.632 56.4895 304.084 56.4895 300.33C56.4895 296.664 58.1799 293.817 61.5357 293.817C64.7797 293.817 66.5197 296.465 66.5197 300.33C66.5197 304.27 64.7424 306.632 61.5357 306.632ZM79.0366 298.665C79.0366 295.62 80.9631 293.88 83.6104 293.88C86.1708 293.88 87.6996 295.508 87.6996 298.304V310H91.4158V297.857C91.4158 293.097 88.8057 290.661 84.8782 290.661C81.9077 290.661 80.1179 291.953 79.223 294.016H78.9868V284.545H75.3203V310H79.0366V298.665ZM113.979 310.385C118.491 310.385 121.412 307.676 121.822 303.96H118.205C117.733 306.023 116.129 307.241 114.004 307.241C110.86 307.241 108.834 304.618 108.834 300.455C108.834 296.365 110.897 293.793 114.004 293.793C116.366 293.793 117.807 295.284 118.205 297.074H121.822C121.424 293.221 118.28 290.661 113.942 290.661C108.56 290.661 105.08 294.712 105.08 300.542C105.08 306.296 108.436 310.385 113.979 310.385ZM133.988 310.385C139.369 310.385 142.887 306.445 142.887 300.542C142.887 294.6 139.369 290.661 133.988 290.661C128.606 290.661 125.088 294.6 125.088 300.542C125.088 306.445 128.606 310.385 133.988 310.385ZM134 307.266C130.483 307.266 128.842 304.196 128.842 300.529C128.842 296.875 130.483 293.768 134 293.768C137.493 293.768 139.133 296.875 139.133 300.529C139.133 304.196 137.493 307.266 134 307.266ZM155.189 317.557C160.049 317.557 163.802 315.332 163.802 310.423V290.909H160.161V294.004H159.887C159.229 292.823 157.911 290.661 154.356 290.661C149.745 290.661 146.352 294.302 146.352 300.38C146.352 306.47 149.82 309.714 154.332 309.714C157.837 309.714 159.191 307.738 159.863 306.52H160.099V310.273C160.099 313.269 158.048 314.561 155.226 314.561C152.132 314.561 150.926 313.008 150.267 311.914L147.073 313.232C148.08 315.568 150.628 317.557 155.189 317.557ZM155.152 306.632C151.833 306.632 150.106 304.084 150.106 300.33C150.106 296.664 151.796 293.817 155.152 293.817C158.396 293.817 160.136 296.465 160.136 300.33C160.136 304.27 158.359 306.632 155.152 306.632ZM172.653 298.665C172.653 295.62 174.517 293.88 177.102 293.88C179.625 293.88 181.154 295.533 181.154 298.304V310H184.87V297.857C184.87 293.134 182.273 290.661 178.37 290.661C175.499 290.661 173.622 291.99 172.74 294.016H172.504V290.909H168.937V310H172.653V298.665ZM190.004 310H193.721V290.909H190.004V310ZM191.881 287.963C193.161 287.963 194.23 286.969 194.23 285.751C194.23 284.533 193.161 283.526 191.881 283.526C190.589 283.526 189.532 284.533 189.532 285.751C189.532 286.969 190.589 287.963 191.881 287.963ZM207.782 290.909H203.867V286.335H200.15V290.909H197.354V293.892H200.15V305.165C200.138 308.633 202.785 310.311 205.719 310.249C206.899 310.236 207.695 310.012 208.13 309.851L207.459 306.781C207.21 306.831 206.75 306.942 206.154 306.942C204.948 306.942 203.867 306.545 203.867 304.395V293.892H207.782V290.909ZM212.043 310H215.759V290.909H212.043V310ZM213.92 287.963C215.2 287.963 216.269 286.969 216.269 285.751C216.269 284.533 215.2 283.526 213.92 283.526C212.627 283.526 211.57 284.533 211.57 285.751C211.57 286.969 212.627 287.963 213.92 287.963ZM237.24 290.909H233.251L228.428 305.6H228.229L223.394 290.909H219.405L226.34 310H230.317L237.24 290.909ZM248.427 310.385C252.591 310.385 255.537 308.335 256.382 305.227L252.864 304.593C252.193 306.396 250.577 307.315 248.464 307.315C245.283 307.315 243.145 305.252 243.045 301.573H256.618V300.256C256.618 293.358 252.491 290.661 248.166 290.661C242.847 290.661 239.342 294.712 239.342 300.579C239.342 306.507 242.797 310.385 248.427 310.385ZM243.058 298.789C243.207 296.08 245.171 293.73 248.191 293.73C251.075 293.73 252.964 295.868 252.976 298.789H243.058ZM274.02 284.545H270.304V310H274.02V284.545ZM287.211 310.385C292.593 310.385 296.11 306.445 296.11 300.542C296.11 294.6 292.593 290.661 287.211 290.661C281.83 290.661 278.312 294.6 278.312 300.542C278.312 306.445 281.83 310.385 287.211 310.385ZM287.224 307.266C283.706 307.266 282.066 304.196 282.066 300.529C282.066 296.875 283.706 293.768 287.224 293.768C290.716 293.768 292.357 296.875 292.357 300.529C292.357 304.196 290.716 307.266 287.224 307.266ZM305.964 310.423C309.121 310.423 310.899 308.819 311.607 307.39H311.756V310H315.385V297.322C315.385 291.767 311.01 290.661 307.978 290.661C304.523 290.661 301.341 292.053 300.098 295.533L303.59 296.328C304.137 294.973 305.529 293.668 308.028 293.668C310.426 293.668 311.657 294.924 311.657 297.086V297.173C311.657 298.528 310.265 298.503 306.834 298.901C303.218 299.324 299.514 300.268 299.514 304.606C299.514 308.359 302.335 310.423 305.964 310.423ZM306.772 307.44C304.672 307.44 303.155 306.495 303.155 304.656C303.155 302.667 304.92 301.958 307.07 301.673C308.276 301.511 311.135 301.188 311.669 300.653V303.114C311.669 305.376 309.867 307.44 306.772 307.44ZM327.632 310.373C331.112 310.373 332.479 308.248 333.15 307.029H333.461V310H337.09V284.545H333.374V294.004H333.15C332.479 292.823 331.212 290.661 327.657 290.661C323.046 290.661 319.653 294.302 319.653 300.492C319.653 306.669 322.996 310.373 327.632 310.373ZM328.452 307.203C325.134 307.203 323.406 304.283 323.406 300.455C323.406 296.664 325.096 293.817 328.452 293.817C331.696 293.817 333.436 296.465 333.436 300.455C333.436 304.469 331.659 307.203 328.452 307.203Z" fill="white"/>
<path d="M912.239 305H914.991L922.585 289.881V287.545H911.045V289.804H919.858V289.932L912.239 305ZM932.879 305.29C936.911 305.29 939.271 302 939.271 296.281C939.271 290.605 936.877 287.307 932.879 287.307C928.874 287.307 926.487 290.597 926.479 296.281C926.479 301.991 928.84 305.281 932.879 305.29ZM932.879 303.014C930.519 303.014 929.095 300.645 929.095 296.281C929.104 291.935 930.527 289.54 932.879 289.54C935.223 289.54 936.655 291.935 936.655 296.281C936.655 300.645 935.232 303.014 932.879 303.014ZM951.73 301.727C951.739 303.696 952.975 305.358 955.284 305.358C957.568 305.358 958.821 303.696 958.821 301.727V300.807C958.821 298.83 957.603 297.176 955.284 297.176C953.009 297.176 951.739 298.838 951.73 300.807V301.727ZM942.952 291.739C942.952 293.707 944.196 295.369 946.506 295.369C948.782 295.369 950.043 293.716 950.034 291.739V290.818C950.043 288.841 948.816 287.188 946.506 287.188C944.239 287.188 942.952 288.841 942.952 290.818V291.739ZM943.668 305H945.705L957.705 287.545H955.668L943.668 305ZM953.716 300.807C953.725 299.827 954.151 298.881 955.284 298.881C956.461 298.881 956.827 299.827 956.827 300.807V301.727C956.827 302.707 956.426 303.653 955.284 303.653C954.125 303.653 953.725 302.699 953.716 301.727V300.807ZM944.946 290.818C944.946 289.847 945.372 288.892 946.506 288.892C947.682 288.892 948.049 289.838 948.049 290.818V291.739C948.049 292.719 947.648 293.665 946.506 293.665C945.347 293.665 944.946 292.719 944.946 291.739V290.818Z" fill="white"/>
<path d="M773.045 403.239C776.693 403.273 779.114 400.648 779.105 397.298C779.114 393.957 776.685 391.562 773.659 391.562C771.818 391.562 770.224 392.449 769.33 393.923H769.202C769.21 389.96 770.71 387.608 773.267 387.608C774.946 387.608 776.003 388.631 776.361 390.08H778.96C778.56 387.318 776.386 385.307 773.267 385.307C769.21 385.307 766.679 388.793 766.679 394.861C766.67 401.287 769.943 403.213 773.045 403.239ZM773.037 401.023C771.009 401.023 769.526 399.318 769.526 397.358C769.534 395.406 771.085 393.702 773.097 393.702C775.091 393.702 776.557 395.312 776.548 397.332C776.557 399.395 775.031 401.023 773.037 401.023ZM788.879 403.29C792.911 403.29 795.271 400 795.271 394.281C795.271 388.605 792.877 385.307 788.879 385.307C784.874 385.307 782.487 388.597 782.479 394.281C782.479 399.991 784.84 403.281 788.879 403.29ZM788.879 401.014C786.519 401.014 785.095 398.645 785.095 394.281C785.104 389.935 786.527 387.54 788.879 387.54C791.223 387.54 792.655 389.935 792.655 394.281C792.655 398.645 791.232 401.014 788.879 401.014ZM807.73 399.727C807.739 401.696 808.975 403.358 811.284 403.358C813.568 403.358 814.821 401.696 814.821 399.727V398.807C814.821 396.83 813.603 395.176 811.284 395.176C809.009 395.176 807.739 396.838 807.73 398.807V399.727ZM798.952 389.739C798.952 391.707 800.196 393.369 802.506 393.369C804.782 393.369 806.043 391.716 806.034 389.739V388.818C806.043 386.841 804.816 385.188 802.506 385.188C800.239 385.188 798.952 386.841 798.952 388.818V389.739ZM799.668 403H801.705L813.705 385.545H811.668L799.668 403ZM809.716 398.807C809.725 397.827 810.151 396.881 811.284 396.881C812.461 396.881 812.827 397.827 812.827 398.807V399.727C812.827 400.707 812.426 401.653 811.284 401.653C810.125 401.653 809.725 400.699 809.716 399.727V398.807ZM800.946 388.818C800.946 387.847 801.372 386.892 802.506 386.892C803.682 386.892 804.049 387.838 804.049 388.818V389.739C804.049 390.719 803.648 391.665 802.506 391.665C801.347 391.665 800.946 390.719 800.946 389.739V388.818Z" fill="white"/>
<defs>
<linearGradient id="paint0_linear" x1="180" y1="399.539" x2="1195" y2="399.539" gradientUnits="userSpaceOnUse">
<stop stop-color="#ACB6E5"/>
<stop offset="1" stop-color="#86FDE8"/>
</linearGradient>
<linearGradient id="paint1_linear" x1="425" y1="492" x2="606" y2="491.5" gradientUnits="userSpaceOnUse">
<stop stop-color="#2F80ED"/>
<stop offset="1" stop-color="#56CCF2"/>
</linearGradient>
<linearGradient id="paint2_linear" x1="517" y1="295.5" x2="982" y2="295.5" gradientUnits="userSpaceOnUse">
<stop stop-color="#4CB8C4"/>
<stop offset="1" stop-color="#3CD3AD"/>
</linearGradient>
<linearGradient id="paint3_linear" x1="517" y1="393.5" x2="843" y2="393.5" gradientUnits="userSpaceOnUse">
<stop stop-color="#4E54C8"/>
<stop offset="1" stop-color="#8F94FB"/>
</linearGradient>
<linearGradient id="paint4_linear" x1="0" y1="402.5" x2="364" y2="402.5" gradientUnits="userSpaceOnUse">
<stop stop-color="#4E54C8"/>
<stop offset="1" stop-color="#8F94FB"/>
</linearGradient>
<linearGradient id="paint5_linear" x1="-101" y1="300" x2="510" y2="300" gradientUnits="userSpaceOnUse">
<stop stop-color="#007991"/>
<stop offset="1" stop-color="#78FFD6"/>
</linearGradient>
<clipPath id="clip0">
<rect width="67" height="67" fill="white" transform="translate(434 460)"/>
</clipPath>
</defs>
</svg>
