<svg id="Capa_1" enable-background="new 0 0 512 512" height="512" viewBox="0 0 512 512" width="512" xmlns="http://www.w3.org/2000/svg" xmlns:xlink="http://www.w3.org/1999/xlink"><linearGradient id="SVGID_1_" gradientUnits="userSpaceOnUse" x1="256" x2="256" y1="512" y2="0"><stop offset="0" stop-color="#00b59c"/><stop offset="1" stop-color="#9cffac"/></linearGradient><linearGradient id="SVGID_2_" gradientUnits="userSpaceOnUse" x1="256" x2="256" y1="452" y2="75"><stop offset="0" stop-color="#c3ffe8"/><stop offset=".9973" stop-color="#f0fff4"/></linearGradient><g><g><g><path d="m120 272c-66.182 0-120 53.833-120 120s53.818 120 120 120 120-53.833 120-120-53.818-120-120-120zm272-91c-66.182 0-120 53.833-120 120s53.818 120 120 120 120-53.833 120-120-53.818-120-120-120zm-211-181c-66.182 0-120 53.833-120 120s53.818 120 120 120 120-53.833 120-120-53.818-120-120-120z" fill="url(#SVGID_1_)"/></g></g><g><g><path d="m174.932 405.433c-6.27-5.522-15.732-4.878-21.182 1.333-17.051 19.365-50.449 19.365-67.5 0-5.449-6.211-14.912-6.855-21.182-1.333-6.211 5.479-6.797 14.956-1.318 21.167 14.209 16.142 34.717 25.4 56.25 25.4s42.041-9.258 56.25-25.4c5.479-6.211 4.893-15.689-1.318-21.167zm-84.932-28.433c8.284 0 15-6.716 15-15s-6.716-15-15-15-15 6.716-15 15 6.716 15 15 15zm75-15c0-8.284-6.716-15-15-15s-15 6.716-15 15 6.716 15 15 15 15-6.716 15-15zm283.25-35.6c-28.418-32.285-84.082-32.285-112.5 0-5.479 6.211-4.893 15.688 1.318 21.167 6.27 5.493 15.732 4.878 21.182-1.333 17.051-19.365 50.449-19.365 67.5 0 5.426 6.178 14.898 6.848 21.182 1.333 6.211-5.478 6.797-14.956 1.318-21.167zm-86.25-40.4c8.284 0 15-6.716 15-15s-6.716-15-15-15-15 6.716-15 15 6.716 15 15 15zm60 0c8.284 0 15-6.716 15-15s-6.716-15-15-15-15 6.716-15 15 6.716 15 15 15zm-271-181c8.284 0 15-6.716 15-15s-6.716-15-15-15-15 6.716-15 15 6.716 15 15 15zm60 0c8.284 0 15-6.716 15-15s-6.716-15-15-15-15 6.716-15 15 6.716 15 15 15zm15 30h-90c-8.291 0-15 6.709-15 15s6.709 15 15 15h90c8.291 0 15-6.709 15-15s-6.709-15-15-15z" fill="url(#SVGID_2_)"/></g></g></g></svg>