<svg xmlns="http://www.w3.org/2000/svg" viewBox="0 0 376.21 500"><defs><style>.cls-1{fill:#fff;}</style></defs><title>Artboard 1</title><g id="OBJECTS"><path class="cls-1" d="M334.7,120.8c-14.43-12.26-32-21.25-52.55-27.12-6.27-23.53-18.33-43-36.39-58.4Q204.25,0,128.94,0H0V414.48L88.94,500H100.8V357.69H217.89q75.3,0,116.81-36.17t41.51-101.39Q376.21,156.09,334.7,120.8ZM11.86,411.56V11.86H128.94q70,0,108.22,32A101.43,101.43,0,0,1,268.6,90.31a251.44,251.44,0,0,0-50.71-4.79H88.94V485.68Zm263.55-277q0,59.9-38.24,92.8T128.94,260.31H100.8V97.38H217.89a227.63,227.63,0,0,1,54.31,6.07A148.9,148.9,0,0,1,275.41,134.6Zm50.7,178.32q-38.25,32.91-108.22,32.91H100.8V272.17h28.15q75.3,0,116.81-36.17T287.27,134.6A169.44,169.44,0,0,0,285,107.15c15.8,5.29,29.57,12.62,41.07,22.25q38.24,32,38.24,90.72Q364.35,280,326.11,312.92Z"/></g></svg>