<svg id="Capa_1" enable-background="new 0 0 512 512" height="512" viewBox="0 0 512 512" width="512" xmlns="http://www.w3.org/2000/svg" xmlns:xlink="http://www.w3.org/1999/xlink"><linearGradient id="SVGID_1_" gradientUnits="userSpaceOnUse" x1="256" x2="256" y1="422" y2="0"><stop offset="0" stop-color="#ffc2cc"/><stop offset="1" stop-color="#fff2f4"/></linearGradient><linearGradient id="SVGID_2_" gradientUnits="userSpaceOnUse" x1="256" x2="256" y1="512" y2="120"><stop offset="0" stop-color="#fd3a84"/><stop offset="1" stop-color="#ffa68d"/></linearGradient><g><g><g><path d="m256 0c-33.076 0-60 26.909-60 60s26.924 60 60 60 60-26.909 60-60-26.924-60-60-60zm-181 302c-33.076 0-60 26.909-60 60s26.924 60 60 60 60-26.909 60-60-26.924-60-60-60zm362 0c-33.076 0-60 26.909-60 60s26.924 60 60 60 60-26.909 60-60-26.924-60-60-60z" fill="url(#SVGID_1_)"/></g></g><g><g><path d="m256 120c-41.367 0-75 33.647-75 75 0 8.291 6.709 15 15 15h120c8.291 0 15-6.709 15-15 0-41.353-33.633-75-75-75zm-181 302c-41.367 0-75 33.647-75 75 0 8.291 6.709 15 15 15h120c8.291 0 15-6.709 15-15 0-41.353-33.633-75-75-75zm362 0c-41.367 0-75 33.647-75 75 0 8.291 6.709 15 15 15h120c8.291 0 15-6.709 15-15 0-41.353-33.633-75-75-75zm-114.291-89.418-51.709-25.854v-50.728c0-8.291-6.709-15-15-15s-15 6.709-15 15v50.728l-51.709 25.854c-7.412 3.706-10.4 12.715-6.709 20.127 3.721 7.427 12.686 10.386 20.127 6.709l53.291-26.646 53.291 26.646c7.58 3.739 16.469.586 20.127-6.709 3.691-7.412.703-16.421-6.709-20.127z" fill="url(#SVGID_2_)"/></g></g></g></svg>