<svg id="Capa_1" enable-background="new 0 0 512.059 512.059" height="512" viewBox="0 0 512.059 512.059" width="512" xmlns="http://www.w3.org/2000/svg" xmlns:xlink="http://www.w3.org/1999/xlink"><linearGradient id="SVGID_1_" gradientUnits="userSpaceOnUse" x1="256.093" x2="256.093" y1="443.544" y2="113.563"><stop offset="0" stop-color="#fd5900"/><stop offset="1" stop-color="#ffde00"/></linearGradient><linearGradient id="SVGID_2_" gradientUnits="userSpaceOnUse" x1="256.029" x2="256.029" y1="503.544" y2="8.515"><stop offset="0" stop-color="#ffe59a"/><stop offset="1" stop-color="#ffffd5"/></linearGradient><g><g><g><path d="m350.512 146.972c-35.215-28.608-81.329-39.521-126.65-30.103-58.154 12.29-104.443 59.897-115.166 118.462-11.689 63.662 17.227 125.757 72.363 157.485v20.728c0 16.569 13.431 30 30 30h90c16.569 0 30-13.431 30-30v-20.757c46.494-26.851 75-75.557 75-129.243 0-45.41-20.245-87.905-55.547-116.572z" fill="url(#SVGID_1_)"/></g></g><g><g><path d="m226.059 233.544c8.291 0 15-6.709 15-15 0-8.276 6.738-15 15-15s15 6.724 15 15c0 5.347-2.871 10.327-7.529 13.008-13.857 8.027-22.471 22.954-22.471 38.965v8.027c0 8.291 6.709 15 15 15s15-6.709 15-15v-8.027c0-5.332 2.871-10.327 7.5-13.008 13.887-8.013 22.5-22.954 22.5-38.965 0-24.814-20.186-45-45-45s-45 20.186-45 45c0 8.291 6.709 15 15 15zm30 90c-8.284 0-15 6.716-15 15s6.716 15 15 15 15-6.716 15-15-6.716-15-15-15zm241-75h-46.059c-8.291 0-15 6.709-15 15s6.709 15 15 15h46.059c8.291 0 15-6.709 15-15s-6.709-15-15-15zm-421 15c0-8.291-6.709-15-15-15h-46.059c-8.291 0-15 6.709-15 15s6.709 15 15 15h46.059c8.291 0 15-6.709 15-15zm179.97-179.971c8.291 0 15-6.709 15-15v-45.058c0-8.291-6.709-15-15-15s-15 6.709-15 15v45.059c0 8.29 6.709 14.999 15 14.999zm-107.021-35.405c-4.131-7.222-13.301-9.624-20.479-5.493-7.178 4.146-9.639 13.315-5.479 20.493l22.529 39.023c4.088 7.153 13.269 9.632 20.479 5.493 7.178-4.146 9.639-13.315 5.479-20.493zm-54.317 104.897-39.023-22.529c-7.148-4.102-16.377-1.67-20.479 5.493-4.16 7.178-1.699 16.348 5.479 20.493l39.023 22.529c7.241 4.157 16.398 1.626 20.479-5.493 4.16-7.177 1.699-16.347-5.479-20.493zm376.7 217.5-39.023-22.529c-7.148-4.087-16.348-1.67-20.479 5.493-4.16 7.178-1.699 16.348 5.479 20.493l39.023 22.529c7.241 4.157 16.398 1.626 20.479-5.493 4.159-7.177 1.698-16.347-5.479-20.493zm-391.7-22.529-39.023 22.529c-7.178 4.146-9.639 13.315-5.479 20.493 4.088 7.153 13.269 9.632 20.479 5.493l39.023-22.529c7.178-4.146 9.639-13.315 5.479-20.493-4.102-7.207-13.301-9.624-20.479-5.493zm352.676-168.984 39.023-22.529c7.178-4.146 9.639-13.315 5.479-20.493-4.131-7.222-13.301-9.639-20.479-5.493l-39.023 22.529c-7.178 4.146-9.639 13.315-5.479 20.493 4.088 7.153 13.27 9.631 20.479 5.493zm-48.808-136.377c-7.148-4.087-16.348-1.67-20.479 5.493l-22.529 39.023c-4.16 7.178-1.699 16.348 5.479 20.493 7.241 4.157 16.398 1.626 20.479-5.493l22.529-39.023c4.159-7.178 1.698-16.348-5.479-20.493zm-202.5 415.869c0 24.853 20.147 45 45 45h60c24.853 0 45-20.147 45-45v-45h-150z" fill="url(#SVGID_2_)"/></g></g></g></svg>