<svg id="Capa_1" enable-background="new 0 0 512 512" height="512" viewBox="0 0 512 512" width="512" xmlns="http://www.w3.org/2000/svg" xmlns:xlink="http://www.w3.org/1999/xlink"><linearGradient id="SVGID_1_" gradientUnits="userSpaceOnUse" x1="233.5" x2="233.5" y1="451" y2="61"><stop offset="0" stop-color="#5558ff"/><stop offset="1" stop-color="#00c0ff"/></linearGradient><linearGradient id="SVGID_2_" gradientUnits="userSpaceOnUse" x1="331.5" x2="331.5" y1="451" y2="151"><stop offset="0" stop-color="#addcff"/><stop offset=".5028" stop-color="#eaf6ff"/><stop offset="1" stop-color="#eaf6ff"/></linearGradient><g><g><g><path d="m437 181c8.401 0 15-6.601 15-15v-90c0-8.401-6.599-15-15-15h-422c-8.401 0-15 6.599-15 15v300c0 8.399 6.599 15 15 15h196l16.262 30 13.738-30h106c8.401 0 15-6.601 15-15v-180c0-8.401 6.599-15 15-15zm-60 225 30 45h30l30-45-45-45zm30-210c-16.816 0-30 13.184-30 30s13.184 30 30 30h30c16.816 0 30-13.184 30-30s-13.184-30-30-30z" fill="url(#SVGID_1_)"/></g></g><g><g><path d="m286 421h-45v-30h-30v30h-45c-8.401 0-15 6.599-15 15 0 8.399 6.599 15 15 15h120c8.401 0 15-6.601 15-15 0-8.401-6.599-15-15-15zm181-270h-90c-24.901 0-45 20.1-45 45v210c0 24.898 20.099 45 45 45h30v-45c0-8.401 6.599-15 15-15s15 6.599 15 15v45h30c24.9 0 45-20.102 45-45v-210c0-24.9-20.1-45-45-45zm-30 90h-30c-8.401 0-15-6.601-15-15 0-8.401 6.599-15 15-15h30c8.401 0 15 6.599 15 15 0 8.399-6.599 15-15 15zm-263.881 42.759c4.438 2.76 9.988 2.96 14.59.659l90-45c5.068-2.549 8.291-7.734 8.291-13.418s-3.223-10.869-8.291-13.418l-90-45c-4.658-2.329-10.195-2.095-14.59.659-4.424 2.739-7.119 7.559-7.119 12.759v90c0 5.2 2.695 10.02 7.119 12.759z" fill="url(#SVGID_2_)"/></g></g></g></svg>